<svg xmlns="http://www.w3.org/2000/svg" viewBox="0 0 64 64">
  <rect width="64" height="64" rx="14" fill="#2a9d8f"/>
  <rect x="6" y="6" width="52" height="52" rx="10" fill="#fdf9f0"/>
  <path d="M14 22h36v26a2 2 0 0 1-2 2H16a2 2 0 0 1-2-2z" fill="#2a9d8f"/>
  <rect x="14" y="14" width="36" height="8" rx="2" fill="#e76f51"/>
  <path d="M20 30h24v2H20zm0 6h24v2H20zm0 6h16v2H20z" fill="#fdf9f0"/>
  <circle cx="48" cy="48" r="11" fill="#e9c46a"/>
  <path d="M48 41l2.1 4.2 4.7.7-3.4 3.3.8 4.7-4.2-2.2-4.2 2.2.8-4.7-3.4-3.3 4.7-.7z" fill="#fdf9f0"/>
</svg>
